<?xml version="1.0" encoding="UTF-8" standalone="no"?>
<!DOCTYPE svg PUBLIC "-//W3C//DTD SVG 1.1//EN"
 "http://www.w3.org/Graphics/SVG/1.1/DTD/svg11.dtd">
<!-- Generated by graphviz version 2.42.4 (0)
 -->
<!-- Title: snakemake_dag Pages: 1 -->
<svg width="148pt" height="260pt"
 viewBox="0.00 0.00 147.50 260.00" xmlns="http://www.w3.org/2000/svg" xmlns:xlink="http://www.w3.org/1999/xlink">
<g id="graph0" class="graph" transform="scale(1 1) rotate(0) translate(4 256)">
<title>snakemake_dag</title>
<polygon fill="white" stroke="transparent" points="-4,4 -4,-256 143.5,-256 143.5,4 -4,4"/>
<!-- 0 -->
<g id="node1" class="node">
<title>0</title>
<path fill="none" stroke="#68d856" stroke-width="2" d="M88,-36C88,-36 57,-36 57,-36 51,-36 45,-30 45,-24 45,-24 45,-12 45,-12 45,-6 51,0 57,0 57,0 88,0 88,0 94,0 100,-6 100,-12 100,-12 100,-24 100,-24 100,-30 94,-36 88,-36"/>
<text text-anchor="middle" x="72.5" y="-15.5" font-family="sans" font-size="10.00">pending</text>
</g>
<!-- 1 -->
<g id="node2" class="node">
<title>1</title>
<path fill="none" stroke="#56b1d8" stroke-width="2" d="M112.5,-108C112.5,-108 32.5,-108 32.5,-108 26.5,-108 20.5,-102 20.5,-96 20.5,-96 20.5,-84 20.5,-84 20.5,-78 26.5,-72 32.5,-72 32.5,-72 112.5,-72 112.5,-72 118.5,-72 124.5,-78 124.5,-84 124.5,-84 124.5,-96 124.5,-96 124.5,-102 118.5,-108 112.5,-108"/>
<text text-anchor="middle" x="72.5" y="-87.5" font-family="sans" font-size="10.00">select_submissions</text>
</g>
<!-- 1&#45;&gt;0 -->
<g id="edge1" class="edge">
<title>1&#45;&gt;0</title>
<path fill="none" stroke="grey" stroke-width="2" d="M72.5,-71.7C72.5,-63.98 72.5,-54.71 72.5,-46.11"/>
<polygon fill="grey" stroke="grey" stroke-width="2" points="76,-46.1 72.5,-36.1 69,-46.1 76,-46.1"/>
</g>
<!-- 2 -->
<g id="node3" class="node">
<title>2</title>
<path fill="none" stroke="#5692d8" stroke-width="2" d="M102,-180C102,-180 43,-180 43,-180 37,-180 31,-174 31,-168 31,-168 31,-156 31,-156 31,-150 37,-144 43,-144 43,-144 102,-144 102,-144 108,-144 114,-150 114,-156 114,-156 114,-168 114,-168 114,-174 108,-180 102,-180"/>
<text text-anchor="middle" x="72.5" y="-159.5" font-family="sans" font-size="10.00">sync_database</text>
</g>
<!-- 2&#45;&gt;1 -->
<g id="edge2" class="edge">
<title>2&#45;&gt;1</title>
<path fill="none" stroke="grey" stroke-width="2" d="M72.5,-143.7C72.5,-135.98 72.5,-126.71 72.5,-118.11"/>
<polygon fill="grey" stroke="grey" stroke-width="2" points="76,-118.1 72.5,-108.1 69,-118.1 76,-118.1"/>
</g>
<!-- 3 -->
<g id="node4" class="node">
<title>3</title>
<path fill="none" stroke="#56d0d8" stroke-width="2" d="M55,-252C55,-252 12,-252 12,-252 6,-252 0,-246 0,-240 0,-240 0,-228 0,-228 0,-222 6,-216 12,-216 12,-216 55,-216 55,-216 61,-216 67,-222 67,-228 67,-228 67,-240 67,-240 67,-246 61,-252 55,-252"/>
<text text-anchor="middle" x="33.5" y="-231.5" font-family="sans" font-size="10.00">scan_inbox</text>
</g>
<!-- 3&#45;&gt;2 -->
<g id="edge4" class="edge">
<title>3&#45;&gt;2</title>
<path fill="none" stroke="grey" stroke-width="2" d="M43.14,-215.7C47.63,-207.64 53.06,-197.89 58.02,-188.98"/>
<polygon fill="grey" stroke="grey" stroke-width="2" points="61.16,-190.54 62.97,-180.1 55.05,-187.14 61.16,-190.54"/>
</g>
<!-- 4 -->
<g id="node5" class="node">
<title>4</title>
<path fill="none" stroke="#9fd856" stroke-width="2" d="M127.5,-252C127.5,-252 97.5,-252 97.5,-252 91.5,-252 85.5,-246 85.5,-240 85.5,-240 85.5,-228 85.5,-228 85.5,-222 91.5,-216 97.5,-216 97.5,-216 127.5,-216 127.5,-216 133.5,-216 139.5,-222 139.5,-228 139.5,-228 139.5,-240 139.5,-240 139.5,-246 133.5,-252 127.5,-252"/>
<text text-anchor="middle" x="112.5" y="-231.5" font-family="sans" font-size="10.00">init_db</text>
</g>
<!-- 4&#45;&gt;2 -->
<g id="edge3" class="edge">
<title>4&#45;&gt;2</title>
<path fill="none" stroke="grey" stroke-width="2" d="M102.61,-215.7C98.01,-207.64 92.44,-197.89 87.35,-188.98"/>
<polygon fill="grey" stroke="grey" stroke-width="2" points="90.27,-187.05 82.27,-180.1 84.2,-190.52 90.27,-187.05"/>
</g>
</g>
</svg>
