<?xml version="1.0" encoding="UTF-8" standalone="no"?>
<!DOCTYPE svg PUBLIC "-//W3C//DTD SVG 1.1//EN"
 "http://www.w3.org/Graphics/SVG/1.1/DTD/svg11.dtd">
<!-- Generated by graphviz version 2.42.4 (0)
 -->
<!-- Title: snakemake_dag Pages: 1 -->
<svg width="357pt" height="620pt"
 viewBox="0.00 0.00 356.62 620.00" xmlns="http://www.w3.org/2000/svg" xmlns:xlink="http://www.w3.org/1999/xlink">
<g id="graph0" class="graph" transform="scale(1 1) rotate(0) translate(4 616)">
<title>snakemake_dag</title>
<polygon fill="white" stroke="transparent" points="-4,4 -4,-616 352.62,-616 352.62,4 -4,4"/>
<!-- 0 -->
<g id="node1" class="node">
<title>0</title>
<path fill="none" stroke="#bed856" stroke-width="2" d="M206.62,-36C206.62,-36 176.62,-36 176.62,-36 170.62,-36 164.62,-30 164.62,-24 164.62,-24 164.62,-12 164.62,-12 164.62,-6 170.62,0 176.62,0 176.62,0 206.62,0 206.62,0 212.62,0 218.62,-6 218.62,-12 218.62,-12 218.62,-24 218.62,-24 218.62,-30 212.62,-36 206.62,-36"/>
<text text-anchor="middle" x="191.62" y="-15.5" font-family="sans" font-size="10.00">finalize</text>
</g>
<!-- 1 -->
<g id="node2" class="node">
<title>1</title>
<path fill="none" stroke="#d85656" stroke-width="2" d="M119.62,-252C119.62,-252 89.62,-252 89.62,-252 83.62,-252 77.62,-246 77.62,-240 77.62,-240 77.62,-228 77.62,-228 77.62,-222 83.62,-216 89.62,-216 89.62,-216 119.62,-216 119.62,-216 125.62,-216 131.62,-222 131.62,-228 131.62,-228 131.62,-240 131.62,-240 131.62,-246 125.62,-252 119.62,-252"/>
<text text-anchor="middle" x="104.62" y="-231.5" font-family="sans" font-size="10.00">archive</text>
</g>
<!-- 1&#45;&gt;0 -->
<g id="edge2" class="edge">
<title>1&#45;&gt;0</title>
<path fill="none" stroke="grey" stroke-width="2" d="M110.4,-215.81C116.56,-197.78 126.76,-168.7 136.62,-144 150.35,-109.59 167.81,-70.62 179.33,-45.47"/>
<polygon fill="grey" stroke="grey" stroke-width="2" points="182.58,-46.78 183.58,-36.23 176.22,-43.85 182.58,-46.78"/>
</g>
<!-- 9 -->
<g id="node10" class="node">
<title>9</title>
<path fill="none" stroke="#56d863" stroke-width="2" d="M281.62,-180C281.62,-180 229.62,-180 229.62,-180 223.62,-180 217.62,-174 217.62,-168 217.62,-168 217.62,-156 217.62,-156 217.62,-150 223.62,-144 229.62,-144 229.62,-144 281.62,-144 281.62,-144 287.62,-144 293.62,-150 293.62,-156 293.62,-156 293.62,-168 293.62,-168 293.62,-174 287.62,-180 281.62,-180"/>
<text text-anchor="middle" x="255.62" y="-159.5" font-family="sans" font-size="10.00">pruefbericht</text>
</g>
<!-- 1&#45;&gt;9 -->
<g id="edge21" class="edge">
<title>1&#45;&gt;9</title>
<path fill="none" stroke="grey" stroke-width="2" d="M131.96,-220.32C153.61,-210.29 184.33,-196.05 209.73,-184.27"/>
<polygon fill="grey" stroke="grey" stroke-width="2" points="211.22,-187.44 218.82,-180.06 208.27,-181.09 211.22,-187.44"/>
</g>
<!-- 2 -->
<g id="node3" class="node">
<title>2</title>
<path fill="none" stroke="#d8d356" stroke-width="2" d="M186.62,-540C186.62,-540 148.62,-540 148.62,-540 142.62,-540 136.62,-534 136.62,-528 136.62,-528 136.62,-516 136.62,-516 136.62,-510 142.62,-504 148.62,-504 148.62,-504 186.62,-504 186.62,-504 192.62,-504 198.62,-510 198.62,-516 198.62,-516 198.62,-528 198.62,-528 198.62,-534 192.62,-540 186.62,-540"/>
<text text-anchor="middle" x="167.62" y="-519.5" font-family="sans" font-size="10.00">download</text>
</g>
<!-- 2&#45;&gt;1 -->
<g id="edge5" class="edge">
<title>2&#45;&gt;1</title>
<path fill="none" stroke="grey" stroke-width="2" d="M136.44,-516.78C105.22,-510.98 57.76,-497.66 28.62,-468 4.78,-443.73 8.48,-429.51 2.62,-396 -6.35,-344.78 14.51,-328.1 47.62,-288 56.02,-277.82 66.31,-267.7 75.82,-259.07"/>
<polygon fill="grey" stroke="grey" stroke-width="2" points="78.4,-261.45 83.56,-252.2 73.76,-256.21 78.4,-261.45"/>
</g>
<!-- 4 -->
<g id="node5" class="node">
<title>4</title>
<path fill="none" stroke="#d89556" stroke-width="2" d="M62.62,-396C62.62,-396 32.62,-396 32.62,-396 26.62,-396 20.62,-390 20.62,-384 20.62,-384 20.62,-372 20.62,-372 20.62,-366 26.62,-360 32.62,-360 32.62,-360 62.62,-360 62.62,-360 68.62,-360 74.62,-366 74.62,-372 74.62,-372 74.62,-384 74.62,-384 74.62,-390 68.62,-396 62.62,-396"/>
<text text-anchor="middle" x="47.62" y="-375.5" font-family="sans" font-size="10.00">consent</text>
</g>
<!-- 2&#45;&gt;4 -->
<g id="edge9" class="edge">
<title>2&#45;&gt;4</title>
<path fill="none" stroke="grey" stroke-width="2" d="M143.97,-503.88C131.46,-494.17 116.31,-481.32 104.62,-468 87.53,-448.54 71.96,-423.48 61.42,-404.91"/>
<polygon fill="grey" stroke="grey" stroke-width="2" points="64.45,-403.16 56.53,-396.12 58.33,-406.56 64.45,-403.16"/>
</g>
<!-- 5 -->
<g id="node6" class="node">
<title>5</title>
<path fill="none" stroke="#d8b456" stroke-width="2" d="M155.62,-468C155.62,-468 125.62,-468 125.62,-468 119.62,-468 113.62,-462 113.62,-456 113.62,-456 113.62,-444 113.62,-444 113.62,-438 119.62,-432 125.62,-432 125.62,-432 155.62,-432 155.62,-432 161.62,-432 167.62,-438 167.62,-444 167.62,-444 167.62,-456 167.62,-456 167.62,-462 161.62,-468 155.62,-468"/>
<text text-anchor="middle" x="140.62" y="-447.5" font-family="sans" font-size="10.00">decrypt</text>
</g>
<!-- 2&#45;&gt;5 -->
<g id="edge11" class="edge">
<title>2&#45;&gt;5</title>
<path fill="none" stroke="grey" stroke-width="2" d="M160.94,-503.7C157.9,-495.81 154.24,-486.3 150.86,-477.55"/>
<polygon fill="grey" stroke="grey" stroke-width="2" points="154.08,-476.17 147.22,-468.1 147.55,-478.69 154.08,-476.17"/>
</g>
<!-- 6 -->
<g id="node7" class="node">
<title>6</title>
<path fill="none" stroke="#56d8a2" stroke-width="2" d="M126.12,-324C126.12,-324 83.12,-324 83.12,-324 77.12,-324 71.12,-318 71.12,-312 71.12,-312 71.12,-300 71.12,-300 71.12,-294 77.12,-288 83.12,-288 83.12,-288 126.12,-288 126.12,-288 132.12,-288 138.12,-294 138.12,-300 138.12,-300 138.12,-312 138.12,-312 138.12,-318 132.12,-324 126.12,-324"/>
<text text-anchor="middle" x="104.62" y="-303.5" font-family="sans" font-size="10.00">re_encrypt</text>
</g>
<!-- 2&#45;&gt;6 -->
<g id="edge12" class="edge">
<title>2&#45;&gt;6</title>
<path fill="none" stroke="grey" stroke-width="2" d="M136.46,-508.11C97.43,-489.91 33.08,-452.45 11.62,-396 5.93,-381.04 3.58,-373.83 11.62,-360 22.48,-341.31 42.68,-328.66 61.48,-320.42"/>
<polygon fill="grey" stroke="grey" stroke-width="2" points="62.9,-323.62 70.84,-316.61 60.26,-317.14 62.9,-323.62"/>
</g>
<!-- 7 -->
<g id="node8" class="node">
<title>7</title>
<path fill="none" stroke="#5673d8" stroke-width="2" d="M210.62,-396C210.62,-396 180.62,-396 180.62,-396 174.62,-396 168.62,-390 168.62,-384 168.62,-384 168.62,-372 168.62,-372 168.62,-366 174.62,-360 180.62,-360 180.62,-360 210.62,-360 210.62,-360 216.62,-360 222.62,-366 222.62,-372 222.62,-372 222.62,-384 222.62,-384 222.62,-390 216.62,-396 210.62,-396"/>
<text text-anchor="middle" x="195.62" y="-375.5" font-family="sans" font-size="10.00">validate</text>
</g>
<!-- 2&#45;&gt;7 -->
<g id="edge16" class="edge">
<title>2&#45;&gt;7</title>
<path fill="none" stroke="grey" stroke-width="2" d="M171,-503.87C175.79,-479.56 184.61,-434.82 190.29,-406.01"/>
<polygon fill="grey" stroke="grey" stroke-width="2" points="193.73,-406.68 192.23,-396.19 186.86,-405.32 193.73,-406.68"/>
</g>
<!-- 8 -->
<g id="node9" class="node">
<title>8</title>
<path fill="none" stroke="#56d8c1" stroke-width="2" d="M336.62,-108C336.62,-108 250.62,-108 250.62,-108 244.62,-108 238.62,-102 238.62,-96 238.62,-96 238.62,-84 238.62,-84 238.62,-78 244.62,-72 250.62,-72 250.62,-72 336.62,-72 336.62,-72 342.62,-72 348.62,-78 348.62,-84 348.62,-84 348.62,-96 348.62,-96 348.62,-102 342.62,-108 336.62,-108"/>
<text text-anchor="middle" x="293.62" y="-87.5" font-family="sans" font-size="10.00">submit_pruefbericht</text>
</g>
<!-- 2&#45;&gt;8 -->
<g id="edge18" class="edge">
<title>2&#45;&gt;8</title>
<path fill="none" stroke="grey" stroke-width="2" d="M198.65,-509.62C244.92,-490.43 326.62,-446.91 326.62,-379 326.62,-379 326.62,-379 326.62,-233 326.62,-191.97 313.39,-145.97 303.68,-117.74"/>
<polygon fill="grey" stroke="grey" stroke-width="2" points="306.94,-116.45 300.3,-108.19 300.34,-118.78 306.94,-116.45"/>
</g>
<!-- 2&#45;&gt;9 -->
<g id="edge20" class="edge">
<title>2&#45;&gt;9</title>
<path fill="none" stroke="grey" stroke-width="2" d="M196.91,-503.97C232.72,-480.7 288.62,-435.36 288.62,-379 288.62,-379 288.62,-379 288.62,-305 288.62,-263.97 275.39,-217.97 265.68,-189.74"/>
<polygon fill="grey" stroke="grey" stroke-width="2" points="268.94,-188.45 262.3,-180.19 262.34,-190.78 268.94,-188.45"/>
</g>
<!-- 11 -->
<g id="node12" class="node">
<title>11</title>
<path fill="none" stroke="#56d882" stroke-width="2" d="M203.62,-324C203.62,-324 173.62,-324 173.62,-324 167.62,-324 161.62,-318 161.62,-312 161.62,-312 161.62,-300 161.62,-300 161.62,-294 167.62,-288 173.62,-288 173.62,-288 203.62,-288 203.62,-288 209.62,-288 215.62,-294 215.62,-300 215.62,-300 215.62,-312 215.62,-312 215.62,-318 209.62,-324 203.62,-324"/>
<text text-anchor="middle" x="188.62" y="-303.5" font-family="sans" font-size="10.00">qc</text>
</g>
<!-- 2&#45;&gt;11 -->
<g id="edge24" class="edge">
<title>2&#45;&gt;11</title>
<path fill="none" stroke="grey" stroke-width="2" d="M179.84,-503.85C195.51,-480.69 221.82,-437.52 231.62,-396 235.29,-380.43 236.97,-375.08 231.62,-360 227.96,-349.68 221.33,-339.9 214.36,-331.61"/>
<polygon fill="grey" stroke="grey" stroke-width="2" points="216.95,-329.26 207.66,-324.16 211.74,-333.94 216.95,-329.26"/>
</g>
<!-- 3 -->
<g id="node4" class="node">
<title>3</title>
<path fill="none" stroke="#88d856" stroke-width="2" d="M186.12,-612C186.12,-612 149.12,-612 149.12,-612 143.12,-612 137.12,-606 137.12,-600 137.12,-600 137.12,-588 137.12,-588 137.12,-582 143.12,-576 149.12,-576 149.12,-576 186.12,-576 186.12,-576 192.12,-576 198.12,-582 198.12,-588 198.12,-588 198.12,-600 198.12,-600 198.12,-606 192.12,-612 186.12,-612"/>
<text text-anchor="middle" x="167.62" y="-591.5" font-family="sans" font-size="10.00">metadata</text>
</g>
<!-- 3&#45;&gt;2 -->
<g id="edge8" class="edge">
<title>3&#45;&gt;2</title>
<path fill="none" stroke="grey" stroke-width="2" d="M167.62,-575.7C167.62,-567.98 167.62,-558.71 167.62,-550.11"/>
<polygon fill="grey" stroke="grey" stroke-width="2" points="171.12,-550.1 167.62,-540.1 164.12,-550.1 171.12,-550.1"/>
</g>
<!-- 4&#45;&gt;1 -->
<g id="edge6" class="edge">
<title>4&#45;&gt;1</title>
<path fill="none" stroke="grey" stroke-width="2" d="M47.7,-359.86C48.37,-341.37 51.19,-311.43 61.62,-288 66.15,-277.83 73.14,-267.98 80.19,-259.59"/>
<polygon fill="grey" stroke="grey" stroke-width="2" points="82.87,-261.84 86.88,-252.04 77.63,-257.21 82.87,-261.84"/>
</g>
<!-- 4&#45;&gt;6 -->
<g id="edge13" class="edge">
<title>4&#45;&gt;6</title>
<path fill="none" stroke="grey" stroke-width="2" d="M61.71,-359.7C68.54,-351.3 76.88,-341.07 84.37,-331.86"/>
<polygon fill="grey" stroke="grey" stroke-width="2" points="87.09,-334.07 90.69,-324.1 81.66,-329.65 87.09,-334.07"/>
</g>
<!-- 5&#45;&gt;4 -->
<g id="edge10" class="edge">
<title>5&#45;&gt;4</title>
<path fill="none" stroke="grey" stroke-width="2" d="M117.63,-431.7C105.8,-422.8 91.23,-411.82 78.44,-402.2"/>
<polygon fill="grey" stroke="grey" stroke-width="2" points="80.44,-399.32 70.34,-396.1 76.23,-404.91 80.44,-399.32"/>
</g>
<!-- 5&#45;&gt;6 -->
<g id="edge15" class="edge">
<title>5&#45;&gt;6</title>
<path fill="none" stroke="grey" stroke-width="2" d="M136.01,-431.83C133.25,-421.47 129.68,-407.99 126.62,-396 121.33,-375.31 115.54,-351.87 111.23,-334.23"/>
<polygon fill="grey" stroke="grey" stroke-width="2" points="114.53,-332.97 108.76,-324.08 107.72,-334.63 114.53,-332.97"/>
</g>
<!-- 5&#45;&gt;7 -->
<g id="edge17" class="edge">
<title>5&#45;&gt;7</title>
<path fill="none" stroke="grey" stroke-width="2" d="M154.21,-431.7C160.74,-423.39 168.69,-413.28 175.87,-404.14"/>
<polygon fill="grey" stroke="grey" stroke-width="2" points="178.75,-406.13 182.18,-396.1 173.25,-401.81 178.75,-406.13"/>
</g>
<!-- 5&#45;&gt;11 -->
<g id="edge25" class="edge">
<title>5&#45;&gt;11</title>
<path fill="none" stroke="grey" stroke-width="2" d="M142.77,-431.86C145.4,-413.62 150.65,-384.14 159.62,-360 163.01,-350.86 167.77,-341.36 172.45,-332.98"/>
<polygon fill="grey" stroke="grey" stroke-width="2" points="175.63,-334.47 177.62,-324.06 169.58,-330.95 175.63,-334.47"/>
</g>
<!-- 6&#45;&gt;1 -->
<g id="edge7" class="edge">
<title>6&#45;&gt;1</title>
<path fill="none" stroke="grey" stroke-width="2" d="M104.62,-287.7C104.62,-279.98 104.62,-270.71 104.62,-262.11"/>
<polygon fill="grey" stroke="grey" stroke-width="2" points="108.12,-262.1 104.62,-252.1 101.12,-262.1 108.12,-262.1"/>
</g>
<!-- 7&#45;&gt;6 -->
<g id="edge14" class="edge">
<title>7&#45;&gt;6</title>
<path fill="none" stroke="grey" stroke-width="2" d="M173.12,-359.7C161.66,-350.88 147.56,-340.03 135.14,-330.47"/>
<polygon fill="grey" stroke="grey" stroke-width="2" points="136.91,-327.43 126.85,-324.1 132.65,-332.98 136.91,-327.43"/>
</g>
<!-- 7&#45;&gt;9 -->
<g id="edge22" class="edge">
<title>7&#45;&gt;9</title>
<path fill="none" stroke="grey" stroke-width="2" d="M206.71,-359.97C212.82,-349.88 220.07,-336.63 224.62,-324 240.9,-278.76 249.19,-223.13 252.95,-190.52"/>
<polygon fill="grey" stroke="grey" stroke-width="2" points="256.45,-190.71 254.05,-180.39 249.49,-189.95 256.45,-190.71"/>
</g>
<!-- 7&#45;&gt;11 -->
<g id="edge26" class="edge">
<title>7&#45;&gt;11</title>
<path fill="none" stroke="grey" stroke-width="2" d="M193.89,-359.7C193.12,-351.98 192.19,-342.71 191.33,-334.11"/>
<polygon fill="grey" stroke="grey" stroke-width="2" points="194.81,-333.71 190.33,-324.1 187.84,-334.4 194.81,-333.71"/>
</g>
<!-- 8&#45;&gt;0 -->
<g id="edge3" class="edge">
<title>8&#45;&gt;0</title>
<path fill="none" stroke="grey" stroke-width="2" d="M268.67,-71.88C255.58,-62.89 239.36,-51.76 225.18,-42.03"/>
<polygon fill="grey" stroke="grey" stroke-width="2" points="226.89,-38.96 216.67,-36.19 222.93,-44.73 226.89,-38.96"/>
</g>
<!-- 9&#45;&gt;0 -->
<g id="edge4" class="edge">
<title>9&#45;&gt;0</title>
<path fill="none" stroke="grey" stroke-width="2" d="M246.96,-143.92C241.79,-133.59 235.17,-120.11 229.62,-108 220.14,-87.32 210.05,-63.61 202.66,-45.87"/>
<polygon fill="grey" stroke="grey" stroke-width="2" points="205.7,-44.07 198.64,-36.18 199.24,-46.76 205.7,-44.07"/>
</g>
<!-- 9&#45;&gt;8 -->
<g id="edge19" class="edge">
<title>9&#45;&gt;8</title>
<path fill="none" stroke="grey" stroke-width="2" d="M265.01,-143.7C269.38,-135.64 274.68,-125.89 279.51,-116.98"/>
<polygon fill="grey" stroke="grey" stroke-width="2" points="282.64,-118.56 284.33,-108.1 276.49,-115.22 282.64,-118.56"/>
</g>
<!-- 10 -->
<g id="node11" class="node">
<title>10</title>
<path fill="none" stroke="#d87556" stroke-width="2" d="M187.62,-180C187.62,-180 157.62,-180 157.62,-180 151.62,-180 145.62,-174 145.62,-168 145.62,-168 145.62,-156 145.62,-156 145.62,-150 151.62,-144 157.62,-144 157.62,-144 187.62,-144 187.62,-144 193.62,-144 199.62,-150 199.62,-156 199.62,-156 199.62,-168 199.62,-168 199.62,-174 193.62,-180 187.62,-180"/>
<text text-anchor="middle" x="172.62" y="-159.5" font-family="sans" font-size="10.00">clean</text>
</g>
<!-- 10&#45;&gt;0 -->
<g id="edge1" class="edge">
<title>10&#45;&gt;0</title>
<path fill="none" stroke="grey" stroke-width="2" d="M174.91,-143.87C178.15,-119.67 184.1,-75.21 187.95,-46.39"/>
<polygon fill="grey" stroke="grey" stroke-width="2" points="191.46,-46.57 189.32,-36.19 184.52,-45.64 191.46,-46.57"/>
</g>
<!-- 11&#45;&gt;10 -->
<g id="edge23" class="edge">
<title>11&#45;&gt;10</title>
<path fill="none" stroke="grey" stroke-width="2" d="M186.69,-287.87C183.96,-263.67 178.95,-219.21 175.71,-190.39"/>
<polygon fill="grey" stroke="grey" stroke-width="2" points="179.15,-189.73 174.56,-180.19 172.2,-190.52 179.15,-189.73"/>
</g>
</g>
</svg>
