<?xml version="1.0" encoding="UTF-8" standalone="no"?>
<!DOCTYPE svg PUBLIC "-//W3C//DTD SVG 1.1//EN"
 "http://www.w3.org/Graphics/SVG/1.1/DTD/svg11.dtd">
<!-- Generated by graphviz version 2.42.4 (0)
 -->
<!-- Title: snakemake_dag Pages: 1 -->
<svg width="314pt" height="692pt"
 viewBox="0.00 0.00 313.93 692.00" xmlns="http://www.w3.org/2000/svg" xmlns:xlink="http://www.w3.org/1999/xlink">
<g id="graph0" class="graph" transform="scale(1 1) rotate(0) translate(4 688)">
<title>snakemake_dag</title>
<polygon fill="white" stroke="transparent" points="-4,4 -4,-688 309.93,-688 309.93,4 -4,4"/>
<!-- 0 -->
<g id="node1" class="node">
<title>0</title>
<path fill="none" stroke="#bed856" stroke-width="2" d="M196.93,-36C196.93,-36 166.93,-36 166.93,-36 160.93,-36 154.93,-30 154.93,-24 154.93,-24 154.93,-12 154.93,-12 154.93,-6 160.93,0 166.93,0 166.93,0 196.93,0 196.93,0 202.93,0 208.93,-6 208.93,-12 208.93,-12 208.93,-24 208.93,-24 208.93,-30 202.93,-36 196.93,-36"/>
<text text-anchor="middle" x="181.93" y="-15.5" font-family="sans" font-size="10.00">finalize</text>
</g>
<!-- 1 -->
<g id="node2" class="node">
<title>1</title>
<path fill="none" stroke="#d85656" stroke-width="2" d="M122.93,-324C122.93,-324 92.93,-324 92.93,-324 86.93,-324 80.93,-318 80.93,-312 80.93,-312 80.93,-300 80.93,-300 80.93,-294 86.93,-288 92.93,-288 92.93,-288 122.93,-288 122.93,-288 128.93,-288 134.93,-294 134.93,-300 134.93,-300 134.93,-312 134.93,-312 134.93,-318 128.93,-324 122.93,-324"/>
<text text-anchor="middle" x="107.93" y="-303.5" font-family="sans" font-size="10.00">archive</text>
</g>
<!-- 1&#45;&gt;0 -->
<g id="edge2" class="edge">
<title>1&#45;&gt;0</title>
<path fill="none" stroke="grey" stroke-width="2" d="M112.33,-287.97C124.69,-240.19 159.77,-104.62 174.87,-46.27"/>
<polygon fill="grey" stroke="grey" stroke-width="2" points="178.33,-46.86 177.45,-36.31 171.55,-45.11 178.33,-46.86"/>
</g>
<!-- 9 -->
<g id="node10" class="node">
<title>9</title>
<path fill="none" stroke="#56d863" stroke-width="2" d="M212.93,-252C212.93,-252 160.93,-252 160.93,-252 154.93,-252 148.93,-246 148.93,-240 148.93,-240 148.93,-228 148.93,-228 148.93,-222 154.93,-216 160.93,-216 160.93,-216 212.93,-216 212.93,-216 218.93,-216 224.93,-222 224.93,-228 224.93,-228 224.93,-240 224.93,-240 224.93,-246 218.93,-252 212.93,-252"/>
<text text-anchor="middle" x="186.93" y="-231.5" font-family="sans" font-size="10.00">pruefbericht</text>
</g>
<!-- 1&#45;&gt;9 -->
<g id="edge20" class="edge">
<title>1&#45;&gt;9</title>
<path fill="none" stroke="grey" stroke-width="2" d="M127.45,-287.7C137.31,-278.97 149.41,-268.24 160.12,-258.75"/>
<polygon fill="grey" stroke="grey" stroke-width="2" points="162.46,-261.36 167.62,-252.1 157.82,-256.12 162.46,-261.36"/>
</g>
<!-- 2 -->
<g id="node3" class="node">
<title>2</title>
<path fill="none" stroke="#d8d356" stroke-width="2" d="M154.93,-612C154.93,-612 116.93,-612 116.93,-612 110.93,-612 104.93,-606 104.93,-600 104.93,-600 104.93,-588 104.93,-588 104.93,-582 110.93,-576 116.93,-576 116.93,-576 154.93,-576 154.93,-576 160.93,-576 166.93,-582 166.93,-588 166.93,-588 166.93,-600 166.93,-600 166.93,-606 160.93,-612 154.93,-612"/>
<text text-anchor="middle" x="135.93" y="-591.5" font-family="sans" font-size="10.00">download</text>
</g>
<!-- 2&#45;&gt;1 -->
<g id="edge5" class="edge">
<title>2&#45;&gt;1</title>
<path fill="none" stroke="grey" stroke-width="2" d="M104.57,-583.94C81.44,-575.82 50.69,-561.77 30.93,-540 7.85,-514.58 9.26,-501.75 2.93,-468 -6.63,-417.06 13.46,-399.58 46.93,-360 55.79,-349.52 66.79,-339.31 77,-330.69"/>
<polygon fill="grey" stroke="grey" stroke-width="2" points="79.45,-333.2 84.96,-324.15 75.01,-327.79 79.45,-333.2"/>
</g>
<!-- 4 -->
<g id="node5" class="node">
<title>4</title>
<path fill="none" stroke="#d89556" stroke-width="2" d="M53.93,-468C53.93,-468 23.93,-468 23.93,-468 17.93,-468 11.93,-462 11.93,-456 11.93,-456 11.93,-444 11.93,-444 11.93,-438 17.93,-432 23.93,-432 23.93,-432 53.93,-432 53.93,-432 59.93,-432 65.93,-438 65.93,-444 65.93,-444 65.93,-456 65.93,-456 65.93,-462 59.93,-468 53.93,-468"/>
<text text-anchor="middle" x="38.93" y="-447.5" font-family="sans" font-size="10.00">consent</text>
</g>
<!-- 2&#45;&gt;4 -->
<g id="edge9" class="edge">
<title>2&#45;&gt;4</title>
<path fill="none" stroke="grey" stroke-width="2" d="M104.67,-583.44C84,-575.36 58.32,-561.59 44.93,-540 33.54,-521.65 32.78,-496.9 34.44,-478.15"/>
<polygon fill="grey" stroke="grey" stroke-width="2" points="37.92,-478.5 35.6,-468.17 30.97,-477.7 37.92,-478.5"/>
</g>
<!-- 5 -->
<g id="node6" class="node">
<title>5</title>
<path fill="none" stroke="#d8b456" stroke-width="2" d="M95.93,-540C95.93,-540 65.93,-540 65.93,-540 59.93,-540 53.93,-534 53.93,-528 53.93,-528 53.93,-516 53.93,-516 53.93,-510 59.93,-504 65.93,-504 65.93,-504 95.93,-504 95.93,-504 101.93,-504 107.93,-510 107.93,-516 107.93,-516 107.93,-528 107.93,-528 107.93,-534 101.93,-540 95.93,-540"/>
<text text-anchor="middle" x="80.93" y="-519.5" font-family="sans" font-size="10.00">decrypt</text>
</g>
<!-- 2&#45;&gt;5 -->
<g id="edge11" class="edge">
<title>2&#45;&gt;5</title>
<path fill="none" stroke="grey" stroke-width="2" d="M122.33,-575.7C115.8,-567.39 107.86,-557.28 100.68,-548.14"/>
<polygon fill="grey" stroke="grey" stroke-width="2" points="103.3,-545.81 94.36,-540.1 97.79,-550.13 103.3,-545.81"/>
</g>
<!-- 6 -->
<g id="node7" class="node">
<title>6</title>
<path fill="none" stroke="#56d8a2" stroke-width="2" d="M129.43,-396C129.43,-396 86.43,-396 86.43,-396 80.43,-396 74.43,-390 74.43,-384 74.43,-384 74.43,-372 74.43,-372 74.43,-366 80.43,-360 86.43,-360 86.43,-360 129.43,-360 129.43,-360 135.43,-360 141.43,-366 141.43,-372 141.43,-372 141.43,-384 141.43,-384 141.43,-390 135.43,-396 129.43,-396"/>
<text text-anchor="middle" x="107.93" y="-375.5" font-family="sans" font-size="10.00">re_encrypt</text>
</g>
<!-- 2&#45;&gt;6 -->
<g id="edge12" class="edge">
<title>2&#45;&gt;6</title>
<path fill="none" stroke="grey" stroke-width="2" d="M133.68,-575.85C128.84,-538.83 117.37,-451.18 111.51,-406.39"/>
<polygon fill="grey" stroke="grey" stroke-width="2" points="114.95,-405.69 110.18,-396.23 108.01,-406.6 114.95,-405.69"/>
</g>
<!-- 7 -->
<g id="node8" class="node">
<title>7</title>
<path fill="none" stroke="#5673d8" stroke-width="2" d="M201.93,-468C201.93,-468 171.93,-468 171.93,-468 165.93,-468 159.93,-462 159.93,-456 159.93,-456 159.93,-444 159.93,-444 159.93,-438 165.93,-432 171.93,-432 171.93,-432 201.93,-432 201.93,-432 207.93,-432 213.93,-438 213.93,-444 213.93,-444 213.93,-456 213.93,-456 213.93,-462 207.93,-468 201.93,-468"/>
<text text-anchor="middle" x="186.93" y="-447.5" font-family="sans" font-size="10.00">validate</text>
</g>
<!-- 2&#45;&gt;7 -->
<g id="edge16" class="edge">
<title>2&#45;&gt;7</title>
<path fill="none" stroke="grey" stroke-width="2" d="M142.08,-575.87C150.85,-551.46 167.02,-506.43 177.36,-477.64"/>
<polygon fill="grey" stroke="grey" stroke-width="2" points="180.67,-478.78 180.75,-468.19 174.08,-476.42 180.67,-478.78"/>
</g>
<!-- 8 -->
<g id="node9" class="node">
<title>8</title>
<path fill="none" stroke="#56d8c1" stroke-width="2" d="M293.93,-180C293.93,-180 207.93,-180 207.93,-180 201.93,-180 195.93,-174 195.93,-168 195.93,-168 195.93,-156 195.93,-156 195.93,-150 201.93,-144 207.93,-144 207.93,-144 293.93,-144 293.93,-144 299.93,-144 305.93,-150 305.93,-156 305.93,-156 305.93,-168 305.93,-168 305.93,-174 299.93,-180 293.93,-180"/>
<text text-anchor="middle" x="250.93" y="-159.5" font-family="sans" font-size="10.00">submit_pruefbericht</text>
</g>
<!-- 2&#45;&gt;8 -->
<g id="edge19" class="edge">
<title>2&#45;&gt;8</title>
<path fill="none" stroke="grey" stroke-width="2" d="M167.17,-579.25C209.52,-558.23 279.93,-513.85 279.93,-451 279.93,-451 279.93,-451 279.93,-305 279.93,-264.21 268.3,-218.15 259.77,-189.84"/>
<polygon fill="grey" stroke="grey" stroke-width="2" points="263.1,-188.77 256.79,-180.26 256.42,-190.84 263.1,-188.77"/>
</g>
<!-- 2&#45;&gt;9 -->
<g id="edge21" class="edge">
<title>2&#45;&gt;9</title>
<path fill="none" stroke="grey" stroke-width="2" d="M160.51,-575.93C191.82,-551.96 241.93,-505.14 241.93,-451 241.93,-451 241.93,-451 241.93,-377 241.93,-334.01 219.73,-288.34 203.54,-260.74"/>
<polygon fill="grey" stroke="grey" stroke-width="2" points="206.49,-258.85 198.32,-252.1 200.5,-262.47 206.49,-258.85"/>
</g>
<!-- 3 -->
<g id="node4" class="node">
<title>3</title>
<path fill="none" stroke="#88d856" stroke-width="2" d="M154.43,-684C154.43,-684 117.43,-684 117.43,-684 111.43,-684 105.43,-678 105.43,-672 105.43,-672 105.43,-660 105.43,-660 105.43,-654 111.43,-648 117.43,-648 117.43,-648 154.43,-648 154.43,-648 160.43,-648 166.43,-654 166.43,-660 166.43,-660 166.43,-672 166.43,-672 166.43,-678 160.43,-684 154.43,-684"/>
<text text-anchor="middle" x="135.93" y="-663.5" font-family="sans" font-size="10.00">metadata</text>
</g>
<!-- 3&#45;&gt;2 -->
<g id="edge8" class="edge">
<title>3&#45;&gt;2</title>
<path fill="none" stroke="grey" stroke-width="2" d="M135.93,-647.7C135.93,-639.98 135.93,-630.71 135.93,-622.11"/>
<polygon fill="grey" stroke="grey" stroke-width="2" points="139.43,-622.1 135.93,-612.1 132.43,-622.1 139.43,-622.1"/>
</g>
<!-- 4&#45;&gt;1 -->
<g id="edge7" class="edge">
<title>4&#45;&gt;1</title>
<path fill="none" stroke="grey" stroke-width="2" d="M41.84,-431.84C45.44,-413.33 52.67,-383.38 64.93,-360 70.1,-350.14 77.26,-340.38 84.27,-331.97"/>
<polygon fill="grey" stroke="grey" stroke-width="2" points="86.95,-334.21 90.86,-324.36 81.67,-329.63 86.95,-334.21"/>
</g>
<!-- 4&#45;&gt;6 -->
<g id="edge14" class="edge">
<title>4&#45;&gt;6</title>
<path fill="none" stroke="grey" stroke-width="2" d="M55.98,-431.7C64.42,-423.14 74.75,-412.66 83.97,-403.3"/>
<polygon fill="grey" stroke="grey" stroke-width="2" points="86.54,-405.68 91.07,-396.1 81.55,-400.77 86.54,-405.68"/>
</g>
<!-- 5&#45;&gt;4 -->
<g id="edge10" class="edge">
<title>5&#45;&gt;4</title>
<path fill="none" stroke="grey" stroke-width="2" d="M70.54,-503.7C65.66,-495.56 59.74,-485.69 54.35,-476.7"/>
<polygon fill="grey" stroke="grey" stroke-width="2" points="57.33,-474.88 49.19,-468.1 51.33,-478.48 57.33,-474.88"/>
</g>
<!-- 5&#45;&gt;6 -->
<g id="edge15" class="edge">
<title>5&#45;&gt;6</title>
<path fill="none" stroke="grey" stroke-width="2" d="M84.18,-503.87C88.78,-479.67 97.24,-435.21 102.72,-406.39"/>
<polygon fill="grey" stroke="grey" stroke-width="2" points="106.23,-406.67 104.66,-396.19 99.35,-405.36 106.23,-406.67"/>
</g>
<!-- 5&#45;&gt;7 -->
<g id="edge17" class="edge">
<title>5&#45;&gt;7</title>
<path fill="none" stroke="grey" stroke-width="2" d="M106.86,-503.88C120.59,-494.81 137.63,-483.55 152.46,-473.76"/>
<polygon fill="grey" stroke="grey" stroke-width="2" points="154.48,-476.62 160.9,-468.19 150.62,-470.78 154.48,-476.62"/>
</g>
<!-- 6&#45;&gt;1 -->
<g id="edge6" class="edge">
<title>6&#45;&gt;1</title>
<path fill="none" stroke="grey" stroke-width="2" d="M107.93,-359.7C107.93,-351.98 107.93,-342.71 107.93,-334.11"/>
<polygon fill="grey" stroke="grey" stroke-width="2" points="111.43,-334.1 107.93,-324.1 104.43,-334.1 111.43,-334.1"/>
</g>
<!-- 7&#45;&gt;6 -->
<g id="edge13" class="edge">
<title>7&#45;&gt;6</title>
<path fill="none" stroke="grey" stroke-width="2" d="M167.4,-431.7C157.54,-422.97 145.44,-412.24 134.73,-402.75"/>
<polygon fill="grey" stroke="grey" stroke-width="2" points="137.03,-400.12 127.23,-396.1 132.39,-405.36 137.03,-400.12"/>
</g>
<!-- 7&#45;&gt;9 -->
<g id="edge22" class="edge">
<title>7&#45;&gt;9</title>
<path fill="none" stroke="grey" stroke-width="2" d="M186.93,-431.85C186.93,-394.83 186.93,-307.18 186.93,-262.39"/>
<polygon fill="grey" stroke="grey" stroke-width="2" points="190.43,-262.23 186.93,-252.23 183.43,-262.23 190.43,-262.23"/>
</g>
<!-- 8&#45;&gt;0 -->
<g id="edge3" class="edge">
<title>8&#45;&gt;0</title>
<path fill="none" stroke="grey" stroke-width="2" d="M240.03,-143.64C233.81,-133.44 226.06,-120.19 219.93,-108 209.58,-87.46 199.44,-63.43 192.23,-45.53"/>
<polygon fill="grey" stroke="grey" stroke-width="2" points="195.4,-44.02 188.45,-36.02 188.89,-46.6 195.4,-44.02"/>
</g>
<!-- 10 -->
<g id="node11" class="node">
<title>10</title>
<path fill="none" stroke="#d87556" stroke-width="2" d="M270.93,-108C270.93,-108 240.93,-108 240.93,-108 234.93,-108 228.93,-102 228.93,-96 228.93,-96 228.93,-84 228.93,-84 228.93,-78 234.93,-72 240.93,-72 240.93,-72 270.93,-72 270.93,-72 276.93,-72 282.93,-78 282.93,-84 282.93,-84 282.93,-96 282.93,-96 282.93,-102 276.93,-108 270.93,-108"/>
<text text-anchor="middle" x="255.93" y="-87.5" font-family="sans" font-size="10.00">clean</text>
</g>
<!-- 8&#45;&gt;10 -->
<g id="edge23" class="edge">
<title>8&#45;&gt;10</title>
<path fill="none" stroke="grey" stroke-width="2" d="M252.16,-143.7C252.71,-135.98 253.37,-126.71 253.99,-118.11"/>
<polygon fill="grey" stroke="grey" stroke-width="2" points="257.48,-118.33 254.7,-108.1 250.5,-117.83 257.48,-118.33"/>
</g>
<!-- 9&#45;&gt;0 -->
<g id="edge1" class="edge">
<title>9&#45;&gt;0</title>
<path fill="none" stroke="grey" stroke-width="2" d="M186.52,-215.85C185.66,-178.83 183.61,-91.18 182.57,-46.39"/>
<polygon fill="grey" stroke="grey" stroke-width="2" points="186.06,-46.15 182.33,-36.23 179.06,-46.31 186.06,-46.15"/>
</g>
<!-- 9&#45;&gt;8 -->
<g id="edge18" class="edge">
<title>9&#45;&gt;8</title>
<path fill="none" stroke="grey" stroke-width="2" d="M202.75,-215.7C210.5,-207.22 219.96,-196.86 228.45,-187.58"/>
<polygon fill="grey" stroke="grey" stroke-width="2" points="231.12,-189.85 235.29,-180.1 225.96,-185.12 231.12,-189.85"/>
</g>
<!-- 10&#45;&gt;0 -->
<g id="edge4" class="edge">
<title>10&#45;&gt;0</title>
<path fill="none" stroke="grey" stroke-width="2" d="M237.63,-71.7C228.49,-63.05 217.29,-52.45 207.33,-43.03"/>
<polygon fill="grey" stroke="grey" stroke-width="2" points="209.68,-40.43 200.01,-36.1 204.87,-45.52 209.68,-40.43"/>
</g>
</g>
</svg>
